<?xml version="1.0" standalone="no"?><!DOCTYPE svg PUBLIC "-//W3C//DTD SVG 1.1//EN" "http://www.w3.org/Graphics/SVG/1.1/DTD/svg11.dtd"><svg t="1528722393310" class="icon" style="" viewBox="0 0 1024 1024" version="1.1" xmlns="http://www.w3.org/2000/svg" p-id="1989" xmlns:xlink="http://www.w3.org/1999/xlink" width="144" height="144"><defs><style type="text/css"></style></defs><path d="M149.333333 149.333333v725.333334h725.333334V149.333333H149.333333z m682.666667 170.666667h-128V192h128v128z m-298.666667 0V192h128v128h-128z m128 42.666667v128h-128v-128h128z m-170.666666-42.666667h-128V192h128v128z m0 42.666667v128h-128v-128h128z m-170.666667 128H192v-128h128v128z m0 42.666666v128H192v-128h128z m42.666667 0h128v128h-128v-128z m128 170.666667v128h-128v-128h128z m42.666666 0h128v128h-128v-128z m0-42.666667v-128h128v128h-128z m170.666667-128h128v128h-128v-128z m0-42.666666v-128h128v128h-128zM320 192v128H192V192h128zM192 704h128v128H192v-128z m512 128v-128h128v128h-128z" fill="#90CAF9" p-id="1990"></path></svg>